<?xml version="1.0" encoding="UTF-8"?>
<svg id="Layer_1" data-name="Layer 1" xmlns="http://www.w3.org/2000/svg" viewBox="0 0 1006.39 1069.27">
  <defs>
    <style>
      .cls-1 {
        fill: #0a446b;
      }

      .cls-1, .cls-2 {
        stroke-width: 0px;
      }

      .cls-2 {
        fill: #171817;
        fill-rule: evenodd;
      }
    </style>
  </defs>
  <path class="cls-1" d="M156.48,811.6c37.49-33.2,89.01-40.44,132.55-23.07l318.08-281.36c13.61-12.63,30.41-26.21,43.51-38.91,11.29-10.95,17.68-23.32,20.35-35.93,5.5-26.05-5.47-38.85,9.91-71.83,16.76-35.95,45.79-46.55,81.63-53.55,10.96-2.14,21.12-3.49,30.47-4.06L515.74,0l-209.42,228.79v-107.11h-170.07v289.89L0,563.44h128.46v283.56c6.97-13.02,16.32-25.04,28.02-35.41Z"/>
  <path class="cls-2" d="M701.29,637.97l-305.57,270.3c11.98,45.32-1.43,95.58-38.92,128.79-52.98,46.92-133.97,42.01-180.89-10.97-46.92-52.98-42.01-133.97,10.97-180.89,37.49-33.2,89.01-40.44,132.55-23.07l318.08-281.36c13.61-12.63,30.41-26.21,43.51-38.91,11.29-10.95,17.68-23.32,20.35-35.93,5.5-26.05-5.47-38.85,9.91-71.83,16.76-35.95,45.79-46.55,81.63-53.55,44.42-8.67,75.61-4.48,93.57,12.57-29.81,15.77-67.67,33.77-98.77,48.62-13.36,57.82,8.03,99.52,64.18,125.12,64.33-31.38,96.49-47.06,96.49-47.06,4,38.95-52.81,94.59-85.51,109.62-16.45,7.56-28.78,8.12-39.5,6.31-41.44-6.99-46.64-23-75.28,1.7-16.73,14.42-30.8,26.47-46.8,40.56h0ZM217.85,880.54l39.76-8.11,39.76-8.11,26.9,30.38,26.9,30.38-12.86,38.49-12.86,38.49-39.76,8.11-39.76,8.11-26.9-30.38-26.9-30.38,12.86-38.49,12.86-38.49h0Z"/>
</svg>