<?xml version="1.0" encoding="UTF-8"?>
<svg id="Layer_1" data-name="Layer 1" xmlns="http://www.w3.org/2000/svg" viewBox="0 0 980.05 870.59">
  <defs>
    <style>
      .cls-1 {
        fill: #1e2021;
      }

      .cls-1, .cls-2 {
        stroke-width: 0px;
      }

      .cls-2 {
        fill: #ae2c21;
      }
    </style>
  </defs>
  <path class="cls-2" d="M957.14,11.31c-47.39,43.72-94.78,87.43-142.18,131.15-2.24,2.06-4.97,3.75-6.71,6.17-35.86,49.66-85.21,58.86-143.53,55.96-81.94-4.08-164.25-.91-246.4-.34-8.7.06-19.67.71-25.69,5.74-34.21,28.56-67.24,58.54-103.72,90.73,57.51,25.31,108.84,52.21,163.03,70.71,76.48,26.11,121.38,79.17,147.88,153.69-64.39,25.4-129.72,51.17-199.42,78.66,11.95-34.51,22.43-64.81,32.93-95.11,4.27-12.32,10.97-27.81-4.95-33.53-9.25-3.32-25.58,1.43-33.63,8.42-33.78,29.37-65.38,61.23-98.29,91.63-26.77,24.73-39.47,23.79-65.91-1-64.84-60.8-129.88-121.41-195.16-181.74-45.3-41.87-47.69-98.31-3.91-142.03C101.37,180.63,172.29,111.9,242.27,42.22,271.41,13.21,305.34-.15,346.7,0c190.16.71,380.32.26,570.48.38,12.85,0,25.69,1.35,38.54,2.07.47,2.95.94,5.9,1.42,8.86Z"/>
  <path class="cls-1" d="M913.34,813.63c-27.32,37.92-64.82,57.72-109.24,55.9-48.11-1.97-96.56-8.25-143.71-18.17-74.33-15.63-146.95-16.75-220.21,5.39-70.45,21.29-143.15,11.21-215.14,12.86-47.84,1.1-77.8-15.66-96.71-58.92-9.02-20.64-24.15-38.54-35.76-58.12-10.26-17.31-7.07-22.7,12.56-23.88,22.76-1.36,45.75-5.55,68.2-3.54,32.09,2.88,54.95-8.97,75.49-32.23,18.56-21.01,39.64-39.82,59.93-59.28,17.21-16.51,23.97-14.99,31.9,6.73,6.44,17.64,12.52,35.41,24.36,54,7.53-18.16,14.1-36.81,23.02-54.27,3.91-7.65,11.47-15.66,19.27-18.78,138.1-55.1,276.74-108.86,414.68-164.36,44.37-17.85,89.01-23.39,135.71-15.41,24.05,4.11,27.02,9,16.88,31.78-31.18,70.05-63.02,139.81-94.3,209.82-5.57,12.46-10.38,25.34-14.38,38.39-12.68,41.43-4.45,61.84,32.72,83.39,4.54,2.63,9.04,5.33,14.74,8.7Z"/>
  <path class="cls-1" d="M685.52,489.8c-2.33-44.83-4.48-86.22-6.77-130.24h47.08v-82.62h58.7v76.58c16.87.77,31.63,1.44,48.78,2.22,0,22.84.45,45.26-.39,67.63-.16,4.34-4.38,10.81-8.3,12.37-45.47,18.18-91.24,35.6-139.1,54.06Z"/>
</svg>